<svg width="33" height="41" viewBox="0 0 33 41" fill="none" xmlns="http://www.w3.org/2000/svg">
<g filter="url(#filter0_d_375_4111)">
<path d="M21.2091 27.9877V29.7771C21.2091 32.742 18.8389 35.1456 15.915 35.1456C12.9911 35.1456 10.6209 32.742 10.6209 29.7771V27.9879L3.56207 27.9879C2.58746 27.9879 1.79736 27.1862 1.79736 26.1978V25.1497C1.79736 24.6751 1.98343 24.2207 2.31437 23.885L3.21568 22.9697C3.43746 22.7448 3.56207 22.4407 3.56207 22.1225V15.4613C3.56207 8.54327 9.09266 2.93504 15.915 2.93504C17.1708 2.93504 18.3828 3.12505 19.5246 3.47827C20.8154 2.04484 22.6734 1.14557 24.7385 1.14557C28.637 1.14557 31.7974 4.35027 31.7974 8.30346C31.7974 10.9673 30.3624 13.2913 28.2335 14.5238C28.2567 14.8324 28.268 15.1456 28.268 15.4614V22.1221C28.268 22.4402 28.3925 22.7456 28.6143 22.9705L29.5157 23.8845C29.8465 24.2202 30.0327 24.6751 30.0327 25.1497V26.1982C30.0327 27.1865 29.2426 27.9877 28.268 27.9877H21.2091Z" fill="#00B192" fill-opacity="0.5" shape-rendering="crispEdges"/>
<path d="M21.2091 27.9877V29.7771C21.2091 32.742 18.8389 35.1456 15.915 35.1456C12.9912 35.1456 10.6209 32.742 10.6209 29.7771V27.9879M21.2091 27.9877L10.6209 27.9879M21.2091 27.9877H28.268C29.2426 27.9877 30.0327 27.1865 30.0327 26.1982V25.1497C30.0327 24.6751 29.8465 24.2202 29.5157 23.8845L28.6143 22.9705C28.3925 22.7456 28.268 22.4402 28.268 22.1221V15.4614C28.268 15.1456 28.2567 14.8324 28.2335 14.5238M10.6209 27.9879L3.56207 27.9879C2.58746 27.9879 1.79736 27.1862 1.79736 26.1978V25.1497C1.79736 24.6751 1.98343 24.2207 2.31437 23.885L3.21568 22.9697C3.43746 22.7448 3.56207 22.4407 3.56207 22.1225V15.4613C3.56207 8.54327 9.09266 2.93504 15.915 2.93504C17.1708 2.93504 18.3828 3.12505 19.5246 3.47827M28.2335 14.5238C30.3624 13.2913 31.7974 10.9673 31.7974 8.30346C31.7974 4.35027 28.637 1.14557 24.7385 1.14557C22.6734 1.14557 20.8154 2.04484 19.5246 3.47827M28.2335 14.5238C27.2031 15.1204 26.0101 15.4614 24.7385 15.4614C20.8401 15.4614 17.6797 12.2567 17.6797 8.30346C17.6797 6.44438 18.3787 4.75083 19.5246 3.47827M19.5246 3.47827L19.5271 3.47904" stroke="#F7F7F7" stroke-width="2" stroke-linecap="round" stroke-linejoin="round" shape-rendering="crispEdges"/>
</g>
<circle cx="24.7974" cy="8.14557" r="6" fill="url(#paint0_radial_375_4111)"/>
<defs>
<filter id="filter0_d_375_4111" x="0.797363" y="0.145569" width="32" height="40" filterUnits="userSpaceOnUse" color-interpolation-filters="sRGB">
<feFlood flood-opacity="0" result="BackgroundImageFix"/>
<feColorMatrix in="SourceAlpha" type="matrix" values="0 0 0 0 0 0 0 0 0 0 0 0 0 0 0 0 0 0 127 0" result="hardAlpha"/>
<feOffset dy="4"/>
<feComposite in2="hardAlpha" operator="out"/>
<feColorMatrix type="matrix" values="0 0 0 0 0 0 0 0 0 0.694118 0 0 0 0 0.572549 0 0 0 0.5 0"/>
<feBlend mode="normal" in2="BackgroundImageFix" result="effect1_dropShadow_375_4111"/>
<feBlend mode="normal" in="SourceGraphic" in2="effect1_dropShadow_375_4111" result="shape"/>
</filter>
<radialGradient id="paint0_radial_375_4111" cx="0" cy="0" r="1" gradientUnits="userSpaceOnUse" gradientTransform="translate(24.7974 1.64557) rotate(90) scale(12.5)">
<stop stop-color="#BC99D9"/>
<stop offset="0.666166" stop-color="#BC99D9"/>
<stop offset="1" stop-color="#49A38D"/>
</radialGradient>
</defs>
</svg>
