<svg width="37" height="45" viewBox="0 0 37 45" fill="none" xmlns="http://www.w3.org/2000/svg">
<g filter="url(#filter0_d_355_1317)">
<path d="M6.00002 4.89111C3.45951 4.89111 1.40002 6.9506 1.40002 9.49111V34.6911C1.40002 37.2316 3.45951 39.2911 6.00002 39.2911H31.2C33.7405 39.2911 35.8 37.2316 35.8 34.6911V9.49111C35.8 6.9506 33.7405 4.89111 31.2 4.89111H6.00002Z" fill="#00B192" fill-opacity="0.5" stroke="#F7F7F7" stroke-width="2" stroke-linecap="round" stroke-linejoin="round"/>
<path d="M6.13342 20.9229C6.13342 20.4933 6.48165 20.1451 6.9112 20.1451H12.3556C12.7852 20.1451 13.1334 20.4933 13.1334 20.9229V26.3673C13.1334 26.7969 12.7852 27.1451 12.3556 27.1451H6.9112C6.48165 27.1451 6.13342 26.7969 6.13342 26.3673V20.9229Z" fill="#F7F7F7" stroke="#F7F7F7" stroke-width="2" stroke-linecap="round" stroke-linejoin="round"/>
<mask id="path-3-outside-1_355_1317" maskUnits="userSpaceOnUse" x="0.400024" y="0" width="37" height="17" fill="black">
<rect fill="white" x="0.400024" width="37" height="17"/>
<path fill-rule="evenodd" clip-rule="evenodd" d="M6.09827 3.5C6.09827 2.67157 6.76984 2 7.59827 2C8.42669 2 9.09827 2.67157 9.09827 3.5V5.89111H13.0983V3.5C13.0983 2.67157 13.7698 2 14.5983 2C15.4267 2 16.0983 2.67157 16.0983 3.5V5.89111H20.0983V3.5C20.0983 2.67157 20.7698 2 21.5983 2C22.4267 2 23.0983 2.67157 23.0983 3.5V5.89111H27.0983V3.5C27.0983 2.67157 27.7698 2 28.5983 2C29.4267 2 30.0983 2.67157 30.0983 3.5V5.89111H30.8C33.0092 5.89111 34.8 7.68197 34.8 9.89111V14.8911H2.40002V9.89111C2.40002 7.78349 4.03008 6.05658 6.09827 5.90232V3.5Z"/>
</mask>
<path fill-rule="evenodd" clip-rule="evenodd" d="M6.09827 3.5C6.09827 2.67157 6.76984 2 7.59827 2C8.42669 2 9.09827 2.67157 9.09827 3.5V5.89111H13.0983V3.5C13.0983 2.67157 13.7698 2 14.5983 2C15.4267 2 16.0983 2.67157 16.0983 3.5V5.89111H20.0983V3.5C20.0983 2.67157 20.7698 2 21.5983 2C22.4267 2 23.0983 2.67157 23.0983 3.5V5.89111H27.0983V3.5C27.0983 2.67157 27.7698 2 28.5983 2C29.4267 2 30.0983 2.67157 30.0983 3.5V5.89111H30.8C33.0092 5.89111 34.8 7.68197 34.8 9.89111V14.8911H2.40002V9.89111C2.40002 7.78349 4.03008 6.05658 6.09827 5.90232V3.5Z" fill="#00B192" fill-opacity="0.5"/>
<path d="M9.09827 5.89111H7.09827C7.09827 6.99568 7.9937 7.89111 9.09827 7.89111V5.89111ZM13.0983 5.89111V7.89111C14.2028 7.89111 15.0983 6.99568 15.0983 5.89111H13.0983ZM16.0983 5.89111H14.0983C14.0983 6.99568 14.9937 7.89111 16.0983 7.89111V5.89111ZM20.0983 5.89111V7.89111C21.2028 7.89111 22.0983 6.99568 22.0983 5.89111H20.0983ZM23.0983 5.89111H21.0983C21.0983 6.99568 21.9937 7.89111 23.0983 7.89111V5.89111ZM27.0983 5.89111V7.89111C28.2028 7.89111 29.0983 6.99568 29.0983 5.89111H27.0983ZM30.0983 5.89111H28.0983C28.0983 6.99568 28.9937 7.89111 30.0983 7.89111V5.89111ZM34.8 14.8911V16.8911C35.9046 16.8911 36.8 15.9957 36.8 14.8911H34.8ZM2.40002 14.8911H0.400024C0.400024 15.9957 1.29545 16.8911 2.40002 16.8911L2.40002 14.8911ZM6.09827 5.90232L6.24703 7.89678C7.29099 7.81892 8.09827 6.94918 8.09827 5.90232H6.09827ZM7.59827 0C5.66527 0 4.09827 1.567 4.09827 3.5H8.09827C8.09827 3.77614 7.87441 4 7.59827 4V0ZM11.0983 3.5C11.0983 1.567 9.53126 0 7.59827 0V4C7.32212 4 7.09827 3.77614 7.09827 3.5H11.0983ZM11.0983 5.89111V3.5H7.09827V5.89111H11.0983ZM13.0983 3.89111H9.09827V7.89111H13.0983V3.89111ZM11.0983 3.5V5.89111H15.0983V3.5H11.0983ZM14.5983 0C12.6653 0 11.0983 1.567 11.0983 3.5H15.0983C15.0983 3.77614 14.8744 4 14.5983 4V0ZM18.0983 3.5C18.0983 1.567 16.5313 0 14.5983 0V4C14.3221 4 14.0983 3.77614 14.0983 3.5H18.0983ZM18.0983 5.89111V3.5H14.0983V5.89111H18.0983ZM20.0983 3.89111H16.0983V7.89111H20.0983V3.89111ZM18.0983 3.5V5.89111H22.0983V3.5H18.0983ZM21.5983 0C19.6653 0 18.0983 1.567 18.0983 3.5H22.0983C22.0983 3.77614 21.8744 4 21.5983 4V0ZM25.0983 3.5C25.0983 1.567 23.5313 0 21.5983 0V4C21.3221 4 21.0983 3.77614 21.0983 3.5H25.0983ZM25.0983 5.89111V3.5H21.0983V5.89111H25.0983ZM27.0983 3.89111H23.0983V7.89111H27.0983V3.89111ZM29.0983 5.89111V3.5H25.0983V5.89111H29.0983ZM29.0983 3.5C29.0983 3.77614 28.8744 4 28.5983 4V0C26.6653 0 25.0983 1.567 25.0983 3.5H29.0983ZM28.5983 4C28.3221 4 28.0983 3.77614 28.0983 3.5H32.0983C32.0983 1.567 30.5313 0 28.5983 0V4ZM28.0983 3.5V5.89111H32.0983V3.5H28.0983ZM30.8 3.89111H30.0983V7.89111H30.8V3.89111ZM36.8 9.89111C36.8 6.5774 34.1137 3.89111 30.8 3.89111V7.89111C31.9046 7.89111 32.8 8.78654 32.8 9.89111H36.8ZM36.8 14.8911V9.89111H32.8V14.8911H36.8ZM2.40002 16.8911H34.8V12.8911H2.40002V16.8911ZM0.400024 9.89111V14.8911H4.40002V9.89111H0.400024ZM5.94951 3.90786C2.84521 4.1394 0.400024 6.72877 0.400024 9.89111H4.40002C4.40002 8.8382 5.21495 7.97376 6.24703 7.89678L5.94951 3.90786ZM4.09827 3.5V5.90232H8.09827V3.5H4.09827Z" fill="#F7F7F7" mask="url(#path-3-outside-1_355_1317)"/>
<path fill-rule="evenodd" clip-rule="evenodd" d="M6.09827 3.5C6.09827 2.67157 6.76984 2 7.59827 2C8.42669 2 9.09827 2.67157 9.09827 3.5V5.89111H13.0983V3.5C13.0983 2.67157 13.7698 2 14.5983 2C15.4267 2 16.0983 2.67157 16.0983 3.5V5.89111H20.0983V3.5C20.0983 2.67157 20.7698 2 21.5983 2C22.4267 2 23.0983 2.67157 23.0983 3.5V5.89111H27.0983V3.5C27.0983 2.67157 27.7698 2 28.5983 2C29.4267 2 30.0983 2.67157 30.0983 3.5V5.89111H30.8C33.0092 5.89111 34.8 7.68197 34.8 9.89111V14.8911H2.40002V9.89111C2.40002 7.78349 4.03008 6.05658 6.09827 5.90232V3.5Z" fill="#3FC3AD"/>
</g>
<defs>
<filter id="filter0_d_355_1317" x="0.400024" y="0" width="36.4" height="44.2911" filterUnits="userSpaceOnUse" color-interpolation-filters="sRGB">
<feFlood flood-opacity="0" result="BackgroundImageFix"/>
<feColorMatrix in="SourceAlpha" type="matrix" values="0 0 0 0 0 0 0 0 0 0 0 0 0 0 0 0 0 0 127 0" result="hardAlpha"/>
<feOffset dy="4"/>
<feComposite in2="hardAlpha" operator="out"/>
<feColorMatrix type="matrix" values="0 0 0 0 0 0 0 0 0 0.694118 0 0 0 0 0.572549 0 0 0 0.5 0"/>
<feBlend mode="normal" in2="BackgroundImageFix" result="effect1_dropShadow_355_1317"/>
<feBlend mode="normal" in="SourceGraphic" in2="effect1_dropShadow_355_1317" result="shape"/>
</filter>
</defs>
</svg>
