<svg width="100%" height="100%" viewBox="0 0 155 188" xmlns="http://www.w3.org/2000/svg" style="stroke-linecap:round; stroke-linejoin:round;">
  <!-- Main Background Rectangle -->
  <path d="M25 20.38c-10.6 0-19.2 8.58-19.2 19.17v105c0 10.6 8.6 19.17 19.2 19.17h105c10.6 0 19.2-8.58 19.2-19.17v-105c0-10.6-8.6-19.17-19.2-19.17h-105Z"
         fill-opacity="0.6" stroke="#f7f7f7" stroke-width="8.33"/>
  
  <!-- Top Rectangular Block -->
  <path d="M25.4 14.58c0-3.45 2.8-6.25 6.25-6.25 3.45 0 6.25 2.8 6.25 6.25v9.96h16.67v-9.96c0-3.45 2.8-6.25 6.25-6.25 3.45 0 6.25 2.8 6.25 6.25v9.96h16.67v-9.96c0-3.45 2.8-6.25 6.25-6.25 3.45 0 6.25 2.8 6.25 6.25v9.96h16.67v-9.96c0-3.45 2.8-6.25 6.25-6.25 3.45 0 6.25 2.8 6.25 6.25v9.96h2.92c9.2 0 16.67 7.46 16.67 16.67v20.83h-135v-20.83c0-8.78 6.79-15.98 15.41-16.62v-10.01Z"
        />

  <!-- Small White Square -->
  <path d="M25.56 87.18c0-1.79 1.45-3.24 3.24-3.24h22.69c1.79 0 3.24 1.45 3.24 3.24v22.69c0 1.79-1.45 3.24-3.24 3.24h-22.69c-1.79 0-3.24-1.45-3.24-3.24v-22.69Z"
        fill="#f7f7f7" stroke="#f7f7f7" stroke-width="8.33"/>
</svg>
