<svg width="28" height="29" viewBox="0 0 28 29" fill="none" xmlns="http://www.w3.org/2000/svg">
<path fill-rule="evenodd" clip-rule="evenodd" d="M10.4981 12.0758C9.35121 13.2246 8.63098 14.4733 8.21145 16.0436L6.81973 21.2457L11.999 19.8553C13.575 19.4327 14.8277 18.7042 15.9793 17.5459L23.544 9.93324L18.0744 4.48828L10.4979 12.0771L10.4981 12.0758ZM24.8385 14.0233C24.8385 13.1484 25.5468 12.4401 26.4192 12.4401C27.2927 12.4401 27.9999 13.1484 27.9999 14.0233V21.604C27.9999 25.1537 25.1118 28.0467 21.5676 28.0467H6.43223C2.88706 28.0467 0 25.1539 0 21.604V6.4427C0 2.89298 2.88804 0 6.43223 0H14.0005C14.8741 0 15.5812 0.708298 15.5812 1.58326C15.5812 2.45823 14.8729 3.16653 14.0005 3.16653H6.43223C4.63284 3.16653 3.16272 4.64026 3.16272 6.44136V21.6014C3.16272 23.4037 4.63406 24.8762 6.43223 24.8762H21.5676C23.367 24.8762 24.8372 23.4025 24.8372 21.6014V14.0208L24.8385 14.0233ZM25.4197 8.04629L19.9538 2.605L21.4358 1.12053C22.37 0.184861 23.6726 -0.165144 24.8812 0.0717684C25.6359 0.219383 26.3026 0.572928 26.8814 1.15268C28.3504 2.62404 28.3932 5.05499 26.8873 6.57021L25.4196 8.04754L25.4197 8.04629Z" fill="white"/>
</svg>
