<svg width="30" height="43" viewBox="0 0 30 43" fill="none" xmlns="http://www.w3.org/2000/svg">
<g filter="url(#filter0_d_355_1336)">
<path fill-rule="evenodd" clip-rule="evenodd" d="M24.2969 10.1453C24.2969 15.1158 20.2676 19.1451 15.2971 19.1451C10.3267 19.1451 6.29736 15.1158 6.29736 10.1453C6.29736 5.1749 10.3267 1.14557 15.2971 1.14557C20.2676 1.14557 24.2969 5.1749 24.2969 10.1453ZM9.23267 22.1459H21.3614C23.3326 22.1483 25.2224 22.9324 26.6163 24.3263C28.0102 25.7202 28.7943 27.61 28.7967 29.5812V37.1456H1.79736V29.5812C1.79974 27.61 2.58387 25.7202 3.97775 24.3263C5.37162 22.9324 7.26144 22.1483 9.23267 22.1459Z" fill-opacity="0.5" shape-rendering="crispEdges"/>
<path d="M21.3614 22.1459L21.3626 21.1459H21.3614V22.1459ZM9.23267 22.1459V21.1459H9.23147L9.23267 22.1459ZM26.6163 24.3263L25.9092 25.0334V25.0334L26.6163 24.3263ZM28.7967 29.5812H29.7967V29.58L28.7967 29.5812ZM28.7967 37.1456V38.1456C29.349 38.1456 29.7967 37.6978 29.7967 37.1456H28.7967ZM1.79736 37.1456H0.797363C0.797363 37.6978 1.24508 38.1456 1.79736 38.1456L1.79736 37.1456ZM1.79736 29.5812L0.797363 29.58V29.5812H1.79736ZM3.97775 24.3263L4.68485 25.0334L4.68485 25.0334L3.97775 24.3263ZM15.2971 20.1451C20.8199 20.1451 25.2969 15.6681 25.2969 10.1453H23.2969C23.2969 14.5635 19.7153 18.1451 15.2971 18.1451V20.1451ZM5.29736 10.1453C5.29736 15.6681 9.77441 20.1451 15.2971 20.1451V18.1451C10.879 18.1451 7.29736 14.5635 7.29736 10.1453H5.29736ZM15.2971 0.145569C9.77441 0.145569 5.29736 4.62262 5.29736 10.1453H7.29736C7.29736 5.72719 10.879 2.14557 15.2971 2.14557V0.145569ZM25.2969 10.1453C25.2969 4.62262 20.8199 0.145569 15.2971 0.145569V2.14557C19.7153 2.14557 23.2969 5.72719 23.2969 10.1453H25.2969ZM21.3614 21.1459H9.23267V23.1459H21.3614V21.1459ZM27.3234 23.6192C25.7423 22.0381 23.5986 21.1486 21.3626 21.1459L21.3602 23.1459C23.0666 23.148 24.7026 23.8268 25.9092 25.0334L27.3234 23.6192ZM29.7967 29.58C29.794 27.344 28.9045 25.2003 27.3234 23.6192L25.9092 25.0334C27.1158 26.2401 27.7946 27.876 27.7967 29.5825L29.7967 29.58ZM29.7967 37.1456V29.5812H27.7967V37.1456H29.7967ZM1.79736 38.1456H28.7967V36.1456H1.79736V38.1456ZM0.797363 29.5812V37.1456H2.79736V29.5812H0.797363ZM3.27064 23.6192C1.68952 25.2003 0.800066 27.344 0.797364 29.58L2.79736 29.5825C2.79942 27.876 3.47822 26.2401 4.68485 25.0334L3.27064 23.6192ZM9.23147 21.1459C6.99543 21.1486 4.85175 22.0381 3.27064 23.6192L4.68485 25.0334C5.89149 23.8268 7.52744 23.148 9.23388 23.1459L9.23147 21.1459Z" fill="#F7F7F7"/>
</g>
<defs>
<filter id="filter0_d_355_1336" x="0.797363" y="0.145569" width="28.9993" height="42" filterUnits="userSpaceOnUse" color-interpolation-filters="sRGB">
<feFlood flood-opacity="0" result="BackgroundImageFix"/>
<feColorMatrix in="SourceAlpha" type="matrix" values="0 0 0 0 0 0 0 0 0 0 0 0 0 0 0 0 0 0 127 0" result="hardAlpha"/>
<feOffset dy="4"/>
<feComposite in2="hardAlpha" operator="out"/>
<feColorMatrix type="matrix" values="0 0 0 0 0 0 0 0 0 0.694118 0 0 0 0 0.572549 0 0 0 0.5 0"/>
<feBlend mode="normal" in2="BackgroundImageFix" result="effect1_dropShadow_355_1336"/>
<feBlend mode="normal" in="SourceGraphic" in2="effect1_dropShadow_355_1336" result="shape"/>
</filter>
</defs>
</svg>
