<svg width="35" height="39" viewBox="0 0 35 39" fill="none" xmlns="http://www.w3.org/2000/svg">
<g filter="url(#filter0_d_355_1332)">
<ellipse cx="15.8006" cy="15.1459" rx="13.9988" ry="13.9988" fill="#00B192" fill-opacity="0.5" stroke="#F7F7F7" stroke-width="2" stroke-linecap="round" stroke-linejoin="round"/>
<path d="M33.2134 29.7392L27.0199 23.5431C31.6542 17.35 30.3906 8.57269 24.1975 3.93839C18.0045 -0.695904 9.22717 0.567718 4.59287 6.76076C-0.0414239 12.9538 1.2222 21.7311 7.41524 26.3654C12.39 30.0881 19.2227 30.0881 24.1975 26.3654L30.3937 32.5616C31.1724 33.3402 32.4348 33.3402 33.2134 32.5616C33.992 31.7829 33.992 30.5205 33.2134 29.7419L33.2134 29.7392ZM15.858 25.1695C10.3539 25.1695 5.89206 20.7076 5.89206 15.2035C5.89206 9.69947 10.3539 5.23758 15.858 5.23758C21.3621 5.23758 25.824 9.69947 25.824 15.2035C25.8181 20.7051 21.3597 25.1637 15.858 25.1695Z" fill="#00B192" fill-opacity="0.5" stroke="#F7F7F7" stroke-width="2" stroke-linecap="round" stroke-linejoin="round"/>
</g>
<defs>
<filter id="filter0_d_355_1332" x="0.800049" y="0.145508" width="33.9973" height="38.0001" filterUnits="userSpaceOnUse" color-interpolation-filters="sRGB">
<feFlood flood-opacity="0" result="BackgroundImageFix"/>
<feColorMatrix in="SourceAlpha" type="matrix" values="0 0 0 0 0 0 0 0 0 0 0 0 0 0 0 0 0 0 127 0" result="hardAlpha"/>
<feOffset dy="4"/>
<feComposite in2="hardAlpha" operator="out"/>
<feColorMatrix type="matrix" values="0 0 0 0 0 0 0 0 0 0.694118 0 0 0 0 0.572549 0 0 0 0.5 0"/>
<feBlend mode="normal" in2="BackgroundImageFix" result="effect1_dropShadow_355_1332"/>
<feBlend mode="normal" in="SourceGraphic" in2="effect1_dropShadow_355_1332" result="shape"/>
</filter>
</defs>
</svg>
